<svg width="119" height="19" viewBox="0 0 119 19" fill="none" xmlns="http://www.w3.org/2000/svg">
<path d="M8.01682e-05 14.7002V0.000194311H3.40208V11.9282H10.7731V14.7002H8.01682e-05ZM17.7574 14.8682C16.5534 14.8682 15.4824 14.6162 14.5444 14.1122C13.6204 13.6082 12.8854 12.9222 12.3394 12.0542C11.8074 11.1722 11.5414 10.1712 11.5414 9.05119C11.5414 7.91719 11.8074 6.91619 12.3394 6.04819C12.8854 5.16619 13.6204 4.48019 14.5444 3.99019C15.4824 3.48619 16.5534 3.2342 17.7574 3.2342C18.9474 3.2342 20.0114 3.48619 20.9494 3.99019C21.8874 4.48019 22.6224 5.15919 23.1544 6.02719C23.6864 6.8952 23.9524 7.90319 23.9524 9.05119C23.9524 10.1712 23.6864 11.1722 23.1544 12.0542C22.6224 12.9222 21.8874 13.6082 20.9494 14.1122C20.0114 14.6162 18.9474 14.8682 17.7574 14.8682ZM17.7574 12.1802C18.3034 12.1802 18.7934 12.0542 19.2274 11.8022C19.6614 11.5502 20.0044 11.1932 20.2564 10.7312C20.5084 10.2552 20.6344 9.6952 20.6344 9.05119C20.6344 8.39319 20.5084 7.8332 20.2564 7.3712C20.0044 6.90919 19.6614 6.55219 19.2274 6.3002C18.7934 6.0482 18.3034 5.9222 17.7574 5.9222C17.2114 5.9222 16.7214 6.0482 16.2874 6.3002C15.8534 6.55219 15.5034 6.90919 15.2374 7.3712C14.9854 7.8332 14.8594 8.39319 14.8594 9.05119C14.8594 9.6952 14.9854 10.2552 15.2374 10.7312C15.5034 11.1932 15.8534 11.5502 16.2874 11.8022C16.7214 12.0542 17.2114 12.1802 17.7574 12.1802ZM31.4551 18.9422C30.3911 18.9422 29.3621 18.8092 28.3681 18.5432C27.3881 18.2912 26.5691 17.9062 25.9111 17.3882L27.2131 15.0362C27.6891 15.4282 28.2911 15.7362 29.0191 15.9602C29.7611 16.1982 30.4891 16.3172 31.2031 16.3172C32.3651 16.3172 33.2051 16.0582 33.7231 15.5402C34.2551 15.0222 34.5211 14.2522 34.5211 13.2302V11.5292L34.7311 8.6942L34.6891 5.83819V3.40219H37.7971V12.8102C37.7971 14.9102 37.2511 16.4572 36.1591 17.4512C35.0671 18.4452 33.4991 18.9422 31.4551 18.9422ZM30.9511 14.1542C29.9011 14.1542 28.9491 13.9302 28.0951 13.4822C27.2551 13.0202 26.5761 12.3832 26.0581 11.5712C25.5541 10.7452 25.3021 9.7862 25.3021 8.6942C25.3021 7.5882 25.5541 6.6292 26.0581 5.8172C26.5761 4.99119 27.2551 4.35419 28.0951 3.9062C28.9491 3.4582 29.9011 3.2342 30.9511 3.2342C31.9031 3.2342 32.7431 3.4302 33.4711 3.8222C34.1991 4.20019 34.7661 4.79519 35.1721 5.60719C35.5781 6.40519 35.7811 7.43419 35.7811 8.6942C35.7811 9.9402 35.5781 10.9692 35.1721 11.7812C34.7661 12.5792 34.1991 13.1742 33.4711 13.5662C32.7431 13.9582 31.9031 14.1542 30.9511 14.1542ZM31.6021 11.4662C32.1761 11.4662 32.6871 11.3542 33.1351 11.1302C33.5831 10.8922 33.9331 10.5632 34.1851 10.1432C34.4371 9.7232 34.5631 9.2402 34.5631 8.6942C34.5631 8.1342 34.4371 7.6512 34.1851 7.24519C33.9331 6.82519 33.5831 6.50319 33.1351 6.27919C32.6871 6.04119 32.1761 5.9222 31.6021 5.9222C31.0281 5.9222 30.5171 6.04119 30.0691 6.27919C29.6211 6.50319 29.2641 6.82519 28.9981 7.24519C28.7461 7.6512 28.6201 8.1342 28.6201 8.6942C28.6201 9.2402 28.7461 9.7232 28.9981 10.1432C29.2641 10.5632 29.6211 10.8922 30.0691 11.1302C30.5171 11.3542 31.0281 11.4662 31.6021 11.4662ZM46.2222 14.8682C45.0182 14.8682 43.9472 14.6162 43.0092 14.1122C42.0852 13.6082 41.3502 12.9222 40.8042 12.0542C40.2722 11.1722 40.0062 10.1712 40.0062 9.05119C40.0062 7.91719 40.2722 6.91619 40.8042 6.04819C41.3502 5.16619 42.0852 4.48019 43.0092 3.99019C43.9472 3.48619 45.0182 3.2342 46.2222 3.2342C47.4122 3.2342 48.4762 3.48619 49.4142 3.99019C50.3522 4.48019 51.0872 5.15919 51.6192 6.02719C52.1512 6.8952 52.4172 7.90319 52.4172 9.05119C52.4172 10.1712 52.1512 11.1722 51.6192 12.0542C51.0872 12.9222 50.3522 13.6082 49.4142 14.1122C48.4762 14.6162 47.4122 14.8682 46.2222 14.8682ZM46.2222 12.1802C46.7682 12.1802 47.2582 12.0542 47.6922 11.8022C48.1262 11.5502 48.4692 11.1932 48.7212 10.7312C48.9732 10.2552 49.0992 9.6952 49.0992 9.05119C49.0992 8.39319 48.9732 7.8332 48.7212 7.3712C48.4692 6.90919 48.1262 6.55219 47.6922 6.3002C47.2582 6.0482 46.7682 5.9222 46.2222 5.9222C45.6762 5.9222 45.1862 6.0482 44.7522 6.3002C44.3182 6.55219 43.9682 6.90919 43.7022 7.3712C43.4502 7.8332 43.3242 8.39319 43.3242 9.05119C43.3242 9.6952 43.4502 10.2552 43.7022 10.7312C43.9682 11.1932 44.3182 11.5502 44.7522 11.8022C45.1862 12.0542 45.6762 12.1802 46.2222 12.1802ZM54.838 14.7002V0.000194311H57.652L63.91 10.3742H62.419L68.572 0.000194311H71.365L71.407 14.7002H68.215L68.194 4.8932H68.782L63.868 13.1462H62.335L57.316 4.8932H58.03V14.7002H54.838ZM81.5936 14.7002V12.4952L81.3836 12.0122V8.0642C81.3836 7.36419 81.1666 6.81819 80.7326 6.42619C80.3126 6.03419 79.6616 5.83819 78.7796 5.83819C78.1776 5.83819 77.5826 5.93619 76.9946 6.13219C76.4206 6.3142 75.9306 6.5662 75.5246 6.8882L74.3486 4.59919C74.9646 4.16519 75.7066 3.82919 76.5746 3.59119C77.4426 3.35319 78.3246 3.2342 79.2206 3.2342C80.9426 3.2342 82.2796 3.6402 83.2316 4.45219C84.1836 5.26419 84.6596 6.5312 84.6596 8.2532V14.7002H81.5936ZM78.1496 14.8682C77.2676 14.8682 76.5116 14.7212 75.8816 14.4272C75.2516 14.1192 74.7686 13.7062 74.4326 13.1882C74.0966 12.6702 73.9286 12.0892 73.9286 11.4452C73.9286 10.7732 74.0896 10.1852 74.4116 9.6812C74.7476 9.1772 75.2726 8.7852 75.9866 8.50519C76.7006 8.21119 77.6316 8.0642 78.7796 8.0642H81.7826V9.9752H79.1366C78.3666 9.9752 77.8346 10.1012 77.5406 10.3532C77.2606 10.6052 77.1206 10.9202 77.1206 11.2982C77.1206 11.7182 77.2816 12.0542 77.6036 12.3062C77.9396 12.5442 78.3946 12.6632 78.9686 12.6632C79.5146 12.6632 80.0046 12.5372 80.4386 12.2852C80.8726 12.0192 81.1876 11.6342 81.3836 11.1302L81.8876 12.6422C81.6496 13.3702 81.2156 13.9232 80.5856 14.3012C79.9556 14.6792 79.1436 14.8682 78.1496 14.8682ZM87.6245 14.7002V3.40219H90.7535V6.5942L90.3125 5.6702C90.6485 4.8722 91.1875 4.27019 91.9295 3.86419C92.6715 3.4442 93.5745 3.2342 94.6385 3.2342V6.2582C94.4985 6.24419 94.3725 6.23719 94.2605 6.23719C94.1485 6.22319 94.0295 6.2162 93.9035 6.2162C93.0075 6.2162 92.2795 6.4752 91.7195 6.9932C91.1735 7.49719 90.9005 8.28819 90.9005 9.3662V14.7002H87.6245ZM101.964 14.8682C100.746 14.8682 99.6614 14.6232 98.7094 14.1332C97.7574 13.6292 97.0084 12.9362 96.4624 12.0542C95.9304 11.1722 95.6644 10.1712 95.6644 9.05119C95.6644 7.91719 95.9304 6.91619 96.4624 6.04819C97.0084 5.16619 97.7574 4.48019 98.7094 3.99019C99.6614 3.48619 100.746 3.2342 101.964 3.2342C103.154 3.2342 104.19 3.48619 105.072 3.99019C105.954 4.48019 106.605 5.18719 107.025 6.1112L104.484 7.4762C104.19 6.94419 103.819 6.55219 103.371 6.3002C102.937 6.0482 102.461 5.9222 101.943 5.9222C101.383 5.9222 100.879 6.0482 100.431 6.3002C99.9834 6.55219 99.6264 6.90919 99.3604 7.3712C99.1084 7.8332 98.9824 8.39319 98.9824 9.05119C98.9824 9.70919 99.1084 10.2692 99.3604 10.7312C99.6264 11.1932 99.9834 11.5502 100.431 11.8022C100.879 12.0542 101.383 12.1802 101.943 12.1802C102.461 12.1802 102.937 12.0612 103.371 11.8232C103.819 11.5712 104.19 11.1722 104.484 10.6262L107.025 12.0122C106.605 12.9222 105.954 13.6292 105.072 14.1332C104.19 14.6232 103.154 14.8682 101.964 14.8682ZM115.842 14.7002V12.4952L115.632 12.0122V8.0642C115.632 7.36419 115.415 6.81819 114.981 6.42619C114.561 6.03419 113.91 5.83819 113.028 5.83819C112.426 5.83819 111.831 5.93619 111.243 6.13219C110.669 6.3142 110.179 6.5662 109.773 6.8882L108.597 4.59919C109.213 4.16519 109.955 3.82919 110.823 3.59119C111.691 3.35319 112.573 3.2342 113.469 3.2342C115.191 3.2342 116.528 3.6402 117.48 4.45219C118.432 5.26419 118.908 6.5312 118.908 8.2532V14.7002H115.842ZM112.398 14.8682C111.516 14.8682 110.76 14.7212 110.13 14.4272C109.5 14.1192 109.017 13.7062 108.681 13.1882C108.345 12.6702 108.177 12.0892 108.177 11.4452C108.177 10.7732 108.338 10.1852 108.66 9.6812C108.996 9.1772 109.521 8.7852 110.235 8.50519C110.949 8.21119 111.88 8.0642 113.028 8.0642H116.031V9.9752H113.385C112.615 9.9752 112.083 10.1012 111.789 10.3532C111.509 10.6052 111.369 10.9202 111.369 11.2982C111.369 11.7182 111.53 12.0542 111.852 12.3062C112.188 12.5442 112.643 12.6632 113.217 12.6632C113.763 12.6632 114.253 12.5372 114.687 12.2852C115.121 12.0192 115.436 11.6342 115.632 11.1302L116.136 12.6422C115.898 13.3702 115.464 13.9232 114.834 14.3012C114.204 14.6792 113.392 14.8682 112.398 14.8682Z" fill="#252B42"/>
</svg>
